<?xml version="1.0" encoding="utf-8"?>
<!-- Generator: Adobe Illustrator 16.0.0, SVG Export Plug-In . SVG Version: 6.00 Build 0)  -->
<!DOCTYPE svg PUBLIC "-//W3C//DTD SVG 1.1//EN" "http://www.w3.org/Graphics/SVG/1.1/DTD/svg11.dtd">
<svg version="1.1" id="Layer_1" xmlns="http://www.w3.org/2000/svg" xmlns:xlink="http://www.w3.org/1999/xlink" x="0px" y="0px"
	 width="260px" height="260px" viewBox="0 0 260 260" enable-background="new 0 0 260 260" xml:space="preserve">
<g>
	<path fill="none" stroke="#75A743" stroke-width="7.1128" stroke-miterlimit="10" d="M126.258,241.351
		c0,0-29.703-95.5-8.086-177.57"/>
	<path fill="none" stroke="#75A743" stroke-width="7.1128" stroke-miterlimit="10" d="M113.908,181.877
		c4.486-73.562,34.768-99.585,49.074-105.41c21.432-8.732,84.98-8.732,84.98-8.732s-12.034,106.442-87.098,111.209
		c-22.303,0.822-35.05-9.495-41.078,14.456c-2.214,8.797-1.253,16.127-1.253,16.127"/>
	<path fill="none" stroke="#75A743" stroke-width="7.1128" stroke-miterlimit="10" d="M12.292,89.51c0,0,81.533-8.036,97.517,55.175
		c1.842,16.701,3.642,33.7,3.642,33.7S28.234,197.682,12.292,89.51z"/>
	<path fill="none" stroke="#75A743" stroke-width="7.1128" stroke-miterlimit="10" d="M110.291,131.029
		c0,0-22.381-33.532-14.273-62.396c8.107-28.868,31.776-53.204,31.776-53.204s12.515,47.926,7.597,64.995
		c-4.923,17.073-25.256,42.629-25.103,51.313"/>
</g>
</svg>
